<?xml version="1.0" encoding="UTF-8"?>
<svg id="Layer_1" data-name="Layer 1" xmlns="http://www.w3.org/2000/svg" viewBox="0 0 221.33 67.33">
  <path fill="#ffffff" d="M221.33,20.52v37.58h-6.57c-.2-.29.47-2.11-.13-2.1-.21,0-2.86,1.71-3.75,2.03-11.98,4.27-22.16-8.24-16.81-19.43,3.1-6.48,10.99-9.26,17.6-6.45,1.05.45,1.79,1.15,2.82,1.51v-13.14h6.83ZM206.03,37.41c-9.21,1.21-7.75,16.22,2.01,15.14s8.12-16.48-2.01-15.14Z"/>
  <path fill="#ef3a3a" d="M18.55,4.11c20,21-14.44,34.46-8.65,54.51.94,3.25,2.88,6.07,5.12,8.54l-.39.13C4.38,60.23-3.8,53.59,1.84,40.05c3.36-8.07,14.54-21.37,14.78-29.38.11-3.65-1.13-7.52-2.9-10.65.19-.19,1.45.85,1.7,1.06,1.12.92,2.14,1.99,3.14,3.04Z"/>
  <path fill="#ffffff" d="M149.85,58.1v-2.1h-.01c-8.82,6.7-21.46,1.01-22.09-10.11-.68-12.05,12.44-19.16,22.08-11.97v-2.1h6.57v26.28h-6.57ZM141.11,37.41c-9.12,1.3-7.78,16.13,2.01,15.14,9.36-.94,8.16-16.59-2.01-15.14Z"/>
  <path fill="#ffffff" d="M92.29,58.1v-2.1c-1.35.56-2.47,1.54-3.87,2.04-9.28,3.35-18.76-3.72-18.48-13.49.27-9.49,9.5-15.92,18.48-12.67,1.4.5,2.52,1.48,3.87,2.04v-2.1h6.31v26.28h-6.31ZM79.25,50.39c7.16,7.55,18-4.9,9.76-11.46-7.39-5.88-15.95,4.93-9.76,11.46Z"/>
  <path fill="#ffffff" d="M182.44,58.1v-2.1c-1.35.56-2.47,1.54-3.87,2.04-10.73,3.88-20.83-6.08-17.93-16.88,2.09-7.8,10.32-12.01,17.92-9.28,1.5.54,2.48,1.4,3.88,2.03v-2.1h6.31v26.28h-6.31ZM173.7,37.41c-9.21,1.21-7.85,15.8,1.5,15.17,9.64-.65,8.62-16.5-1.5-15.17Z"/>
  <path fill="#ffffff" d="M95.45,9.74v14.45h2.89c.62,0,1.23,0,1.84,0v-6.83h2.89s.13,1.84.13,1.84c2.95-3.9,9.43-3.52,10.84,1.52.24.85.08,3.48,1.25,3.48h92.11v-6.83h2.89v9.72h-94.74c-.27,0-1.58-.98-1.84-1.3-.32.43-1.66,1.3-2.1,1.3h-19.05V9.74h2.89ZM111.22,24.2c1.36-7.25-7.41-5.88-8.15,0h8.15Z"/>
  <polygon fill="#ffffff" points="74.95 20.52 74.95 27.35 63.12 27.35 63.12 58.1 55.76 58.1 55.76 27.35 43.94 27.35 43.94 20.52 74.95 20.52"/>
  <path fill="#ffffff" d="M124.88,31.82v5.65l-13.14,14.33c-.07.12.35.52.39.52h13.27v5.39l-.39.39h-22.47v-5.65c0-.83,10.02-10.61,11.17-12.22l1.97-2.63h-12.61v-5.78h21.81Z"/>
  <path fill="#ef3a3a" d="M16.34,63.49c0,.11.89,1.08-.12.38-11.03-14.74,9.5-26.31,10.37-40.72l1.97,3.94c3.33,10.41-5.57,17.7-9.9,25.84-.54,1.02-2.32,4.91-2.32,5.83,0,1.57-.07,3.17,0,4.73Z"/>
  <path fill="#ef3a3a" d="M21.33,67.3c-.68.11-.41-.07-.55-.37-4.46-9.55,12.09-21.35,11.06-32.35-.07-.79-.66-1.5-.4-2.23,1.57,1.92,3.11,4.4,3.69,6.82,2.76,11.55-11.5,18.02-13.81,28.13Z"/>
  <path fill="#ffffff" d="M80.47,27.09v-2.89h6.57c.43-4.6-.79-5.41-5.26-4.99v-2.63h4.86c.24,0,1.45.67,1.72.91,2.28,2.02.85,6.37,1.48,9.08l-.31.53h-9.07Z"/>
  <path fill="#ffffff" d="M206.54,12.15c2.13-.33,2.43,3.6-.27,2.8-1.44-.43-1.15-2.58.27-2.8Z"/>
  <path fill="#ffffff" d="M210.49,12.15c1.76-.27,2.3,2.6.45,2.86-2.23.31-2.25-2.58-.45-2.86Z"/>
  <path fill="#ffffff" d="M108.52,12.15c1.76-.27,2.3,2.6.45,2.86-2.23.31-2.25-2.58-.45-2.86Z"/>
</svg>
